<?xml version="1.0" encoding="utf-8"?>
<svg version="1.1" id="awards-and-certifications" xmlns="http://www.w3.org/2000/svg" xmlns:xlink="http://www.w3.org/1999/xlink" x="0px" y="0px" width="200px" height="200px" viewBox="0 0 200 200" style="enable-background:new 0 0 200 200;" xml:space="preserve">
<style type="text/css"> .st0{fill:#EEB21C;}.st1{fill:#E2A61E;}.st2{fill:#FBBF1B;}.st3{fill:#FFFFFF;}</style><polygon class="st0" points="47.36 192.96 70.94 188.64 91.18 199.24 109.02 119.36 65.21 113.08 "/><polygon class="st0" points="90.98 119.36 108.82 199.24 129.06 188.64 152.64 192.96 134.8 113.08 "/><path class="st1" d="M134.79 113.08L100 118.07l-34.79-4.99 -8.69 38.89c5.98 5.6 8.87 17.7 16.59 20.2 7.55 2.45 17.11-5.81 25.59-6.62l1.3-5.81 1.3 5.81c8.48 0.81 18.04 9.07 25.59 6.62 7.72-2.5 10.61-14.6 16.59-20.2L134.79 113.08z"/><path class="st2" d="M187 83.98c0 8.8-12.06 15.58-14.64 23.51 -2.67 8.23 3.01 20.79-1.97 27.63 -5.03 6.92-18.77 5.37-25.68 10.4 -6.85 4.98-9.59 18.55-17.81 21.22 -7.94 2.58-18.1-6.7-26.89-6.7s-18.96 9.28-26.89 6.7c-8.22-2.67-10.97-16.24-17.82-21.22 -6.91-5.03-20.65-3.48-25.68-10.4 -4.98-6.85 0.7-19.41-1.97-27.63C25.06 99.55 13 92.77 13 83.98S25.06 68.4 27.64 60.46c2.67-8.23-3.01-20.79 1.97-27.63 5.03-6.91 18.77-5.37 25.68-10.4 6.85-4.98 9.59-18.55 17.81-21.22 7.94-2.58 18.1 6.7 26.89 6.7s18.96-9.28 26.89-6.7c8.22 2.67 10.97 16.24 17.81 21.22 6.91 5.03 20.65 3.48 25.68 10.4 4.98 6.85-0.7 19.41 1.97 27.63C174.94 68.4 187 75.18 187 83.98"/><path class="st0" d="M162.9 83.98c0 34.74-28.16 62.9-62.9 62.9s-62.9-28.16-62.9-62.9 28.16-62.9 62.9-62.9S162.9 49.24 162.9 83.98"/><path class="st3" d="M65.65 60.82l2.87-19.02h3.42l2.87 19.02H72.1l-0.52-3.88h-2.69l-0.52 3.88H65.65zM70.39 47.98l-0.08-0.49h-0.15l-0.08 0.49 -0.8 6h1.92L70.39 47.98z"/><polygon class="st3" points="81.49 60.82 79.31 60.82 76.75 41.8 79.34 41.8 80.45 51.68 80.51 52.3 80.71 52.3 80.79 51.68 81.98 41.8 84 41.8 85.19 51.68 85.27 52.3 85.47 52.3 85.52 51.68 86.64 41.8 89.23 41.8 86.66 60.82 84.49 60.82 83.2 51.81 83.04 50.7 82.94 50.7 82.78 51.81 "/><path class="st3" d="M91.73 60.82l2.87-19.02h3.42l2.87 19.02h-2.72l-0.52-3.88h-2.69l-0.52 3.88H91.73zM96.47 47.98l-0.08-0.49h-0.16l-0.08 0.49 -0.8 6h1.91L96.47 47.98z"/><path class="st3" d="M109.12 60.82l-1.45-8.02h-0.75v8.02h-2.79V41.8h2.79c3.34 0 4.76 1.89 4.76 5.49 0 1.89-0.49 3.6-1.55 4.32l1.79 9.21H109.12zM106.92 50.21c0.39 0 0.9-0.05 1.32-0.41 0.41-0.36 0.75-1.06 0.75-2.41 0-1.35-0.34-2.07-0.75-2.43 -0.41-0.36-0.93-0.39-1.32-0.39V50.21z"/><path class="st3" d="M115.41 60.82V41.8h2.2c2.59 0 3.99 0.52 4.74 1.97 0.72 1.45 0.83 3.83 0.83 7.56 0 3.73-0.1 6.08-0.83 7.53 -0.75 1.45-2.15 1.97-4.74 1.97H115.41zM118.2 58.02c0.96 0 1.5-0.1 1.79-1.03 0.13-0.44 0.23-1.11 0.26-2.02s0.03-2.12 0.03-3.68c0-1.55 0-2.77-0.03-3.67 -0.03-0.88-0.13-1.55-0.26-2.02 -0.28-0.91-0.83-1.01-1.79-1.01V58.02z"/><path class="st3" d="M131.6 46.9c0-0.62-0.02-1.32-0.21-1.86 -0.18-0.52-0.47-0.88-0.91-0.88 -0.72 0.03-0.96 0.78-0.96 1.89 0 0.65 0.28 1.32 0.7 2.04 0.41 0.73 0.96 1.48 1.5 2.28 0.65 0.96 1.29 1.94 1.79 2.9 0.49 0.96 0.83 1.94 0.83 2.98 0 1.27-0.21 2.46-0.8 3.34 -0.59 0.88-1.55 1.45-3.08 1.45 -1.78 0-2.79-0.67-3.36-1.71 -0.57-1.04-0.7-2.41-0.7-3.83l2.74-0.26c0 0.8 0.03 1.61 0.23 2.2 0.18 0.62 0.49 1.04 1.09 1.04 0.83 0 1.14-0.88 1.14-2.1 0-0.62-0.31-1.35-0.73-2.1 -0.23-0.36-0.46-0.75-0.72-1.14 -0.54-0.78-1.14-1.66-1.76-2.61 -0.62-0.96-1.08-1.94-1.37-2.95 -0.16-0.49-0.23-1.01-0.23-1.53 0-1.04 0.23-2.15 0.83-3 0.59-0.83 1.5-1.42 2.82-1.45 1.68-0.02 2.67 0.68 3.21 1.68 0.54 1.03 0.7 2.3 0.7 3.36L131.6 46.9z"/><path class="st3" d="M91.63 79.16h-1.42c-0.16 0-0.29-0.04-0.39-0.12 -0.1-0.08-0.18-0.18-0.23-0.3l-0.74-2.02h-4.09l-0.74 2.02c-0.04 0.1-0.11 0.2-0.21 0.29 -0.11 0.08-0.23 0.13-0.39 0.13h-1.43l3.89-9.88h1.87L91.63 79.16zM88.38 75.43l-1.2-3.29c-0.06-0.15-0.12-0.32-0.19-0.52 -0.06-0.2-0.13-0.42-0.19-0.65 -0.06 0.23-0.12 0.45-0.18 0.65 -0.06 0.2-0.13 0.38-0.19 0.53l-1.19 3.27H88.38z"/><path class="st3" d="M103.71 69.29v9.88h-0.94c-0.15 0-0.27-0.02-0.37-0.07 -0.1-0.05-0.19-0.13-0.28-0.24l-5.16-6.58c0.03 0.3 0.04 0.58 0.04 0.83v6.07h-1.62v-9.88h0.96c0.08 0 0.15 0 0.2 0.01 0.06 0.01 0.11 0.02 0.15 0.04 0.04 0.02 0.08 0.05 0.13 0.09 0.04 0.04 0.08 0.09 0.14 0.15l5.18 6.61c-0.01-0.16-0.02-0.32-0.03-0.47 -0.01-0.15-0.01-0.3-0.01-0.43v-6H103.71z"/><path class="st3" d="M117.42 74.23c0 0.73-0.12 1.39-0.36 1.99 -0.24 0.61-0.58 1.13-1.02 1.57 -0.44 0.44-0.96 0.78-1.58 1.02 -0.62 0.24-1.3 0.36-2.05 0.36h-3.77v-9.88h3.77c0.75 0 1.43 0.12 2.05 0.36 0.62 0.24 1.14 0.58 1.58 1.02 0.43 0.43 0.77 0.96 1.02 1.56C117.3 72.84 117.42 73.5 117.42 74.23M115.53 74.23c0-0.54-0.07-1.03-0.22-1.46 -0.14-0.43-0.35-0.79-0.62-1.09 -0.27-0.3-0.6-0.53-0.99-0.69 -0.38-0.16-0.82-0.24-1.3-0.24h-1.92v6.96h1.92c0.48 0 0.92-0.08 1.3-0.24 0.38-0.16 0.71-0.39 0.99-0.69 0.27-0.3 0.48-0.66 0.62-1.09S115.53 74.77 115.53 74.23"/><path class="st3" d="M55.26 100.93v2.47c-0.02 0.73-0.17 1.39-0.44 1.96 -0.22 0.49-0.56 0.96-1.05 1.32 -0.49 0.39-1.15 0.61-2.03 0.61 -0.88 0-1.57-0.22-2.06-0.61 -0.49-0.37-0.81-0.83-1.03-1.32 -0.27-0.56-0.42-1.22-0.44-1.96V92.81c0.02-0.71 0.17-1.37 0.44-1.93 0.22-0.49 0.54-0.98 1.03-1.34 0.49-0.37 1.18-0.61 2.06-0.61 0.88 0 1.54 0.24 2.03 0.61 0.49 0.37 0.83 0.85 1.05 1.34 0.27 0.56 0.42 1.22 0.44 1.93v2.47h-2.47v-2.47c0-0.49-0.12-0.83-0.39-1.13 -0.12-0.12-0.34-0.2-0.61-0.2 -0.46 0-0.68 0.34-0.81 0.66 -0.07 0.2-0.1 0.42-0.12 0.66v10.59c0.02 0.51 0.17 0.86 0.42 1.13 0.12 0.12 0.29 0.2 0.51 0.2 0.56 0 0.78-0.29 0.91-0.66 0.07-0.17 0.1-0.39 0.1-0.66v-2.47H55.26z"/><polygon class="st3" points="56.85 89.12 62.89 89.12 62.89 91.83 59.49 91.83 59.49 96.55 61.93 96.55 61.93 99.44 59.49 99.44 59.49 104.38 62.89 104.38 62.89 107.1 56.85 107.1 "/><path class="st3" d="M69.07 107.1l-1.37-7.58h-0.71v7.58h-2.64V89.12h2.64c3.16 0 4.5 1.79 4.5 5.18 0 1.79-0.47 3.4-1.47 4.09l1.69 8.71H69.07zM66.99 97.07c0.37 0 0.86-0.05 1.25-0.39 0.39-0.34 0.71-1 0.71-2.28 0-1.27-0.32-1.96-0.71-2.3 -0.39-0.34-0.88-0.37-1.25-0.37V97.07z"/><polygon class="st3" points="72.25 91.83 72.25 89.12 79.89 89.12 79.89 91.83 77.39 91.83 77.39 107.1 74.75 107.1 74.75 91.83 "/><rect x="80.91" y="89.11" class="st3" width="2.64" height="17.98"/><polygon class="st3" points="91.8 91.83 88.15 91.83 88.15 96.55 90.6 96.55 90.6 99.27 88.15 99.27 88.15 107.1 85.51 107.1 85.51 89.12 91.8 89.12 "/><rect x="92.87" y="89.11" class="st3" width="2.64" height="17.98"/><path class="st3" d="M104.34 100.93v2.47c-0.02 0.73-0.17 1.39-0.44 1.96 -0.22 0.49-0.56 0.96-1.05 1.32 -0.49 0.39-1.15 0.61-2.03 0.61s-1.57-0.22-2.06-0.61c-0.49-0.37-0.81-0.83-1.03-1.32 -0.27-0.56-0.42-1.22-0.44-1.96V92.81c0.02-0.71 0.17-1.37 0.44-1.93 0.22-0.49 0.54-0.98 1.03-1.34 0.49-0.37 1.18-0.61 2.06-0.61s1.54 0.24 2.03 0.61c0.49 0.37 0.83 0.85 1.05 1.34 0.27 0.56 0.42 1.22 0.44 1.93v2.47h-2.47v-2.47c0-0.49-0.12-0.83-0.39-1.13 -0.12-0.12-0.34-0.2-0.61-0.2 -0.46 0-0.68 0.34-0.81 0.66 -0.07 0.2-0.1 0.42-0.12 0.66v10.59c0.02 0.51 0.17 0.86 0.42 1.13 0.12 0.12 0.29 0.2 0.51 0.2 0.56 0 0.78-0.29 0.91-0.66 0.07-0.17 0.1-0.39 0.1-0.66v-2.47H104.34z"/><path class="st3" d="M105.2 107.1l2.72-17.98h3.23l2.72 17.98h-2.57l-0.49-3.67h-2.54l-0.49 3.67H105.2zM109.67 94.96l-0.07-0.46h-0.15l-0.07 0.46 -0.76 5.68h1.81L109.67 94.96z"/><polygon class="st3" points="113.61 91.83 113.61 89.12 121.25 89.12 121.25 91.83 118.75 91.83 118.75 107.1 116.11 107.1 116.11 91.83 "/><rect x="122.27" y="89.11" class="st3" width="2.64" height="17.98"/><path class="st3" d="M133.74 103.4c-0.02 0.73-0.17 1.39-0.44 1.96 -0.22 0.49-0.56 0.96-1.05 1.32 -0.49 0.39-1.15 0.61-2.03 0.61 -0.88 0-1.57-0.22-2.06-0.61 -0.49-0.37-0.81-0.83-1.03-1.32 -0.27-0.56-0.42-1.22-0.44-1.96v-10.6c0.02-0.71 0.17-1.37 0.44-1.93 0.22-0.49 0.54-0.98 1.03-1.35 0.49-0.37 1.18-0.61 2.06-0.61 0.88 0 1.54 0.24 2.03 0.61 0.49 0.37 0.83 0.86 1.05 1.35 0.27 0.56 0.42 1.22 0.44 1.93V103.4zM131.1 92.81c0-0.49-0.1-0.83-0.34-1.13 -0.13-0.12-0.32-0.2-0.54-0.2 -0.46 0-0.68 0.34-0.78 0.66 -0.07 0.2-0.1 0.42-0.1 0.66v10.6c0 0.51 0.12 0.85 0.37 1.13 0.12 0.12 0.29 0.2 0.51 0.2 0.47 0 0.68-0.29 0.78-0.66 0.07-0.17 0.1-0.39 0.1-0.66V92.81z"/><polygon class="st3" points="138.32 97.73 138.1 96.9 137.95 96.9 137.95 107.1 135.53 107.1 135.53 89.12 137.88 89.12 140.45 98.49 140.67 99.32 140.81 99.32 140.81 89.12 143.24 89.12 143.24 107.1 140.89 107.1 "/><path class="st3" d="M149.57 93.93c0-0.59-0.02-1.25-0.2-1.76 -0.17-0.49-0.44-0.83-0.86-0.83 -0.68 0.02-0.91 0.73-0.91 1.79 0 0.61 0.27 1.25 0.66 1.93 0.39 0.69 0.9 1.4 1.42 2.15 0.61 0.9 1.22 1.84 1.69 2.74 0.46 0.9 0.78 1.83 0.78 2.81 0 1.2-0.2 2.32-0.76 3.16 -0.56 0.83-1.47 1.37-2.91 1.37 -1.69 0-2.64-0.64-3.18-1.62 -0.54-0.98-0.66-2.27-0.66-3.62l2.59-0.24c0 0.76 0.02 1.52 0.22 2.08 0.17 0.59 0.46 0.98 1.03 0.98 0.78 0 1.08-0.83 1.08-1.98 0-0.59-0.3-1.27-0.69-1.98 -0.22-0.34-0.44-0.71-0.68-1.07 -0.52-0.74-1.08-1.57-1.66-2.47 -0.59-0.9-1.03-1.84-1.3-2.79 -0.15-0.46-0.22-0.95-0.22-1.44 0-0.98 0.22-2.03 0.78-2.84 0.56-0.78 1.42-1.35 2.67-1.37 1.59-0.02 2.52 0.64 3.03 1.59 0.51 0.98 0.66 2.18 0.66 3.18L149.57 93.93z"/><rect x="123.85" y="74.66" class="st3" width="22.82" height="1.36"/><rect x="53.33" y="74.66" class="st3" width="22.82" height="1.36"/><polygon class="st3" points="116.67 121.91 118.06 124.74 121.19 125.19 118.93 127.4 119.46 130.51 116.67 129.04 113.87 130.51 114.4 127.4 112.14 125.19 115.27 124.74 "/><polygon class="st3" points="100 121.91 101.4 124.74 104.52 125.19 102.26 127.4 102.8 130.51 100 129.04 97.2 130.51 97.74 127.4 95.48 125.19 98.6 124.74 "/><polygon class="st3" points="83.33 121.91 84.73 124.74 87.86 125.19 85.6 127.4 86.13 130.51 83.33 129.04 80.54 130.51 81.07 127.4 78.81 125.19 81.94 124.74 "/></svg>